<svg width="16" height="17" viewBox="0 0 16 17" fill="none" xmlns="http://www.w3.org/2000/svg">
<path d="M11.6923 16.8574H14.1538V13.0498H11.6923V16.8574ZM1.84615 16.8574H4.30769V13.0498H1.84615V16.8574ZM3.40103 4.67009H0V11.5283H16V4.67009H3.40103ZM0.615385 10.2735V8.11699L2.78564 5.42958H4.52718L0.615385 10.2735ZM4.56821 10.7663H2.82872L7.13641 5.43212H8.87795L4.57026 10.7663H4.56821ZM8.91897 10.7663H7.17949L11.4872 5.43212H13.2267L8.91897 10.7663ZM15.3826 8.15001L13.2697 10.7663H11.5303L15.3846 5.99347V8.15001H15.3826ZM3.07692 4.66755C3.92615 4.66755 4.61538 3.81408 4.61538 2.76249C4.61538 1.71089 3.92615 0.857422 3.07692 0.857422C2.22769 0.857422 1.53846 1.71089 1.53846 2.76249C1.53846 3.81408 2.22769 4.66755 3.07692 4.66755ZM3.07692 1.80995C3.50154 1.80995 3.84615 2.23669 3.84615 2.76249C3.84615 3.28828 3.50154 3.71502 3.07692 3.71502C2.65231 3.71502 2.30769 3.28828 2.30769 2.76249C2.30769 2.23669 2.65231 1.80995 3.07692 1.80995ZM12.9231 4.66755C13.7723 4.66755 14.4615 3.81408 14.4615 2.76249C14.4615 1.71089 13.7723 0.857422 12.9231 0.857422C12.0738 0.857422 11.3846 1.71089 11.3846 2.76249C11.3846 3.81408 12.0738 4.66755 12.9231 4.66755ZM12.9231 1.80995C13.3477 1.80995 13.6923 2.23669 13.6923 2.76249C13.6923 3.28828 13.3477 3.71502 12.9231 3.71502C12.4985 3.71502 12.1538 3.28828 12.1538 2.76249C12.1538 2.23669 12.4985 1.80995 12.9231 1.80995Z" fill="white"/>
</svg>
