<svg width="49" height="31" viewBox="0 0 59 41" fill="none" xmlns="http://www.w3.org/2000/svg">
<path d="M43.875 11.875V6.125C43.875 4.60001 43.2692 3.13747 42.1909 2.05914C41.1125 0.980802 39.65 0.375 38.125 0.375H6.5C4.97501 0.375 3.51247 0.980802 2.43414 2.05914C1.3558 3.13747 0.75 4.60001 0.75 6.125V34.875C0.75 36.4 1.3558 37.8625 2.43414 38.9409C3.51247 40.0192 4.97501 40.625 6.5 40.625H38.125C39.65 40.625 41.1125 40.0192 42.1909 38.9409C43.2692 37.8625 43.875 36.4 43.875 34.875V29.125L58.25 40.625V0.375L43.875 11.875Z" fill="#FFC506"/>
</svg>
