<svg width="18" height="18" viewBox="0 0 18 18" fill="none" xmlns="http://www.w3.org/2000/svg">
<path fill-rule="evenodd" clip-rule="evenodd" d="M15.1071 8.06141H16.7416C16.8118 8.05665 16.8805 8.08382 16.9302 8.13598C16.9799 8.18814 17.0058 8.26023 17.0013 8.33385V13.5101C17.0055 13.5851 16.98 13.6586 16.9309 13.7132C16.8817 13.7678 16.8132 13.7987 16.7416 13.7985H15.8251C15.6638 15.5304 14.2759 16.8511 12.6172 16.8511C10.9585 16.8511 9.57068 15.5304 9.40938 13.7985H7.59159C7.44573 13.79 7.33168 13.6633 7.33191 13.5101C7.3395 13.363 7.45144 13.2456 7.59159 13.2376H9.40938C9.57068 11.5058 10.9585 10.1851 12.6172 10.1851C14.2759 10.1851 15.6638 11.5058 15.8251 13.2376H16.4819V8.6223H12.495C12.4234 8.62243 12.355 8.59154 12.3058 8.53693C12.2566 8.48232 12.2311 8.40883 12.2353 8.33385C12.2308 8.26023 12.2567 8.18814 12.3064 8.13598C12.3561 8.08382 12.4249 8.05665 12.495 8.06141H14.4961V4.76016H12.8311C12.7595 4.76029 12.691 4.7294 12.6418 4.67479C12.5927 4.62017 12.5672 4.54669 12.5714 4.4717C12.5669 4.39809 12.5928 4.32599 12.6425 4.27383C12.6922 4.22167 12.7609 4.1945 12.8311 4.19927H14.8322C14.9037 4.19485 14.9737 4.22159 15.0258 4.27317C15.0778 4.32474 15.1073 4.39658 15.1071 4.4717V8.06141ZM9.92881 13.5058C9.92881 15.0635 11.1325 16.3263 12.6173 16.3263C13.3316 16.3306 14.0178 16.0348 14.5229 15.5049C15.0279 14.975 15.3099 14.2551 15.3058 13.5058C15.3058 11.9481 14.1021 10.6853 12.6173 10.6853C11.1325 10.6853 9.92881 11.9481 9.92881 13.5058Z" fill="white"/>
<path d="M16.7416 8.06141V8.26187L16.7552 8.26095L16.7416 8.06141ZM15.1071 8.06141H14.9071V8.26141H15.1071V8.06141ZM16.9302 8.13598L17.075 7.99798V7.99798L16.9302 8.13598ZM17.0013 8.33385L16.8013 8.32151V8.33385H17.0013ZM17.0013 13.5101H16.801L16.8016 13.5213L17.0013 13.5101ZM16.9309 13.7132L17.0795 13.847L17.0795 13.847L16.9309 13.7132ZM16.7416 13.7985L16.742 13.5985H16.7416V13.7985ZM15.8251 13.7985V13.5985H15.6429L15.626 13.78L15.8251 13.7985ZM9.40938 13.7985L9.60852 13.78L9.59162 13.5985H9.40938V13.7985ZM7.59159 13.7985L7.57992 13.9985H7.59159V13.7985ZM7.33191 13.5101L7.13192 13.4998L7.13191 13.5098L7.33191 13.5101ZM7.59159 13.2376V13.0373L7.58025 13.038L7.59159 13.2376ZM9.40938 13.2376V13.4376H9.59162L9.60852 13.2562L9.40938 13.2376ZM15.8251 13.2376L15.626 13.2562L15.6429 13.4376H15.8251V13.2376ZM16.4819 13.2376V13.4376H16.6819V13.2376H16.4819ZM16.4819 8.6223H16.6819V8.4223H16.4819V8.6223ZM12.495 8.6223V8.4223L12.4947 8.4223L12.495 8.6223ZM12.3058 8.53693L12.1571 8.67074L12.3058 8.53693ZM12.2353 8.33385L12.435 8.34506L12.4357 8.33329L12.435 8.32153L12.2353 8.33385ZM12.3064 8.13598L12.1617 7.99798L12.1617 7.99798L12.3064 8.13598ZM12.495 8.06141L12.4815 8.26141H12.495V8.06141ZM14.4961 8.06141V8.26141H14.6961V8.06141H14.4961ZM14.4961 4.76016H14.6961V4.56016H14.4961V4.76016ZM12.8311 4.76016V4.56016L12.8307 4.56016L12.8311 4.76016ZM12.6418 4.67479L12.4932 4.8086L12.4932 4.8086L12.6418 4.67479ZM12.5714 4.4717L12.7711 4.48292L12.7718 4.47115L12.771 4.45938L12.5714 4.4717ZM12.6425 4.27383L12.7873 4.41182V4.41182L12.6425 4.27383ZM12.8311 4.19927L12.8175 4.39927H12.8311V4.19927ZM14.8322 4.19927V4.39965L14.8445 4.39889L14.8322 4.19927ZM15.0258 4.27317L15.1665 4.13109L15.1665 4.13109L15.0258 4.27317ZM15.1071 4.4717L14.9071 4.47137V4.4717H15.1071ZM12.6173 16.3263L12.6185 16.1263H12.6173V16.3263ZM14.5229 15.5049L14.3781 15.3669H14.3781L14.5229 15.5049ZM15.3058 13.5058H15.1058L15.1058 13.5069L15.3058 13.5058ZM16.7416 7.86141H15.1071V8.26141H16.7416V7.86141ZM17.075 7.99798C16.9854 7.90403 16.8592 7.85297 16.7281 7.86187L16.7552 8.26095C16.7644 8.26033 16.7756 8.26361 16.7855 8.27397L17.075 7.99798ZM17.2009 8.34616C17.2088 8.21848 17.1641 8.09149 17.075 7.99798L16.7855 8.27397C16.7958 8.28478 16.8029 8.30199 16.8017 8.32153L17.2009 8.34616ZM17.2013 13.5101V8.33385H16.8013V13.5101H17.2013ZM17.0795 13.847C17.1652 13.7518 17.2081 13.6257 17.201 13.4989L16.8016 13.5213C16.8029 13.5444 16.7949 13.5653 16.7822 13.5794L17.0795 13.847ZM16.7413 13.9985C16.8714 13.9988 16.9935 13.9426 17.0795 13.847L16.7822 13.5794C16.7699 13.593 16.7551 13.5986 16.742 13.5985L16.7413 13.9985ZM15.8251 13.9985H16.7416V13.5985H15.8251V13.9985ZM12.6172 17.0511C14.3869 17.0511 15.8541 15.6439 16.0242 13.8171L15.626 13.78C15.4735 15.4169 14.1649 16.6511 12.6172 16.6511V17.0511ZM9.21024 13.8171C9.38038 15.6439 10.8476 17.0511 12.6172 17.0511V16.6511C11.0695 16.6511 9.76097 15.4169 9.60852 13.78L9.21024 13.8171ZM7.59159 13.9985H9.40938V13.5985H7.59159V13.9985ZM7.13191 13.5098C7.13154 13.7607 7.32005 13.983 7.57994 13.9982L7.60325 13.5989C7.57141 13.597 7.53183 13.566 7.53191 13.5104L7.13191 13.5098ZM7.58025 13.038C7.33062 13.0522 7.14463 13.2585 7.13218 13.4998L7.53164 13.5204C7.53437 13.4676 7.57226 13.4391 7.60294 13.4373L7.58025 13.038ZM9.40938 13.0376H7.59159V13.4376H9.40938V13.0376ZM12.6172 9.98508C10.8476 9.98508 9.38038 11.3923 9.21024 13.2191L9.60852 13.2562C9.76097 11.6193 11.0695 10.3851 12.6172 10.3851V9.98508ZM16.0242 13.2191C15.8541 11.3923 14.3869 9.98508 12.6172 9.98508V10.3851C14.1649 10.3851 15.4735 11.6193 15.626 13.2562L16.0242 13.2191ZM16.4819 13.0376H15.8251V13.4376H16.4819V13.0376ZM16.2819 8.6223V13.2376H16.6819V8.6223H16.2819ZM12.495 8.8223H16.4819V8.4223H12.495V8.8223ZM12.1571 8.67074C12.2432 8.76632 12.3653 8.82254 12.4954 8.8223L12.4947 8.4223C12.4816 8.42233 12.4667 8.41677 12.4544 8.40312L12.1571 8.67074ZM12.0357 8.32263C12.0285 8.44951 12.0714 8.57555 12.1571 8.67074L12.4544 8.40312C12.4418 8.38909 12.4337 8.36816 12.435 8.34506L12.0357 8.32263ZM12.1617 7.99798C12.0725 8.09149 12.0279 8.21848 12.0357 8.34616L12.435 8.32153C12.4338 8.30199 12.4409 8.28478 12.4512 8.27397L12.1617 7.99798ZM12.5086 7.86187C12.3775 7.85297 12.2512 7.90403 12.1617 7.99798L12.4512 8.27397C12.4611 8.26361 12.4723 8.26033 12.4815 8.26095L12.5086 7.86187ZM14.4961 7.86141H12.495V8.26141H14.4961V7.86141ZM14.2961 4.76016V8.06141H14.6961V4.76016H14.2961ZM12.8311 4.96016H14.4961V4.56016H12.8311V4.96016ZM12.4932 4.8086C12.5792 4.90417 12.7014 4.96039 12.8315 4.96016L12.8307 4.56016C12.8176 4.56018 12.8028 4.55462 12.7905 4.54097L12.4932 4.8086ZM12.3717 4.46048C12.3646 4.58737 12.4075 4.7134 12.4932 4.8086L12.7905 4.54097C12.7779 4.52694 12.7698 4.50601 12.7711 4.48292L12.3717 4.46048ZM12.4977 4.13584C12.4086 4.22935 12.3639 4.35633 12.3718 4.48402L12.771 4.45938C12.7698 4.43985 12.7769 4.42264 12.7873 4.41182L12.4977 4.13584ZM12.8446 3.99973C12.7135 3.99082 12.5873 4.04188 12.4977 4.13584L12.7873 4.41182C12.7971 4.40146 12.8083 4.39818 12.8175 4.39881L12.8446 3.99973ZM14.8322 3.99927H12.8311V4.39927H14.8322V3.99927ZM15.1665 4.13109C15.0751 4.04045 14.9497 3.99162 14.8198 3.99965L14.8445 4.39889C14.8576 4.39808 14.8724 4.40272 14.885 4.41524L15.1665 4.13109ZM15.3071 4.47203C15.3074 4.34494 15.2576 4.22136 15.1665 4.13109L14.885 4.41524C14.898 4.42813 14.9072 4.44823 14.9071 4.47137L15.3071 4.47203ZM15.3071 8.06141V4.4717H14.9071V8.06141H15.3071ZM12.6173 16.1263C11.2519 16.1263 10.1288 14.9622 10.1288 13.5058H9.72881C9.72881 15.1648 11.0131 16.5263 12.6173 16.5263V16.1263ZM14.3781 15.3669C13.91 15.858 13.2761 16.1302 12.6185 16.1263L12.6161 16.5263C13.387 16.5309 14.1256 16.2116 14.6676 15.6429L14.3781 15.3669ZM15.1058 13.5069C15.1096 14.2058 14.8465 14.8755 14.3781 15.3669L14.6676 15.6429C15.2094 15.0746 15.5102 14.3044 15.5058 13.5047L15.1058 13.5069ZM12.6173 10.8853C13.9827 10.8853 15.1058 12.0494 15.1058 13.5058H15.5058C15.5058 11.8467 14.2215 10.4853 12.6173 10.4853V10.8853ZM10.1288 13.5058C10.1288 12.0494 11.2519 10.8853 12.6173 10.8853V10.4853C11.0131 10.4853 9.72881 11.8467 9.72881 13.5058H10.1288Z" fill="white"/>
<path fill-rule="evenodd" clip-rule="evenodd" d="M10.1425 9.4264C9.9794 10.0442 9.55806 10.551 8.99685 10.8046C8.85904 10.8542 8.71478 10.8812 8.56914 10.8847C8.30901 10.8806 8.05313 10.8149 7.82064 10.6924L1.16052 5.37195C1.09986 5.3349 1.05179 5.27886 1.02304 5.2117C0.992321 5.14038 0.992321 5.05865 1.02304 4.98734L2.12287 3.03223C2.168 2.94345 2.2561 2.888 2.35201 2.888H9.0885L10.6924 0.96494C10.7405 0.901873 10.8141 0.866245 10.891 0.868787H14.7557C14.838 0.843813 14.9267 0.860497 14.9956 0.913911C15.0644 0.967326 15.1057 1.05137 15.1071 1.14122V2.58352C15.1128 2.67602 15.0733 2.76525 15.0023 2.82035C14.9312 2.87545 14.8383 2.88886 14.7557 2.85595H11.8686L10.1425 9.4264ZM1.6336 5.0073L8.00348 10.1996L8.07986 10.2797C8.33961 10.3893 8.62971 10.3893 8.88946 10.2797C9.29179 10.0737 9.58773 9.69293 9.69906 9.23803L11.5016 2.47527C11.5229 2.34967 11.6245 2.25644 11.746 2.25091H14.4956V1.38554H11.0128L9.40883 3.3086C9.36076 3.37167 9.28718 3.40729 9.21025 3.40475H2.5043L1.6336 5.0073Z" fill="white"/>
<path d="M8.99685 10.8046L9.06453 10.9928L9.07198 10.9901L9.0792 10.9869L8.99685 10.8046ZM10.1425 9.4264L10.3359 9.47746L10.3359 9.47722L10.1425 9.4264ZM8.56914 10.8847L8.56598 11.0849L8.574 11.0847L8.56914 10.8847ZM7.82064 10.6924L7.69581 10.8487L7.71064 10.8605L7.72743 10.8694L7.82064 10.6924ZM1.16052 5.37195L1.28535 5.21569L1.27551 5.20783L1.26477 5.20127L1.16052 5.37195ZM1.02304 5.2117L1.2069 5.13299L1.20672 5.13258L1.02304 5.2117ZM1.02304 4.98734L0.848725 4.88928L0.843536 4.8985L0.839349 4.90823L1.02304 4.98734ZM2.12287 3.03223L2.29734 3.13037L2.30116 3.12286L2.12287 3.03223ZM9.0885 2.888V3.088H9.18213L9.24209 3.0161L9.0885 2.888ZM10.6924 0.96494L10.8462 1.09317L10.8515 1.08618L10.6924 0.96494ZM10.891 0.868787L10.8844 1.06879H10.891V0.868787ZM14.7557 0.868787V1.06879H14.7854L14.8138 1.06017L14.7557 0.868787ZM14.9956 0.913911L15.1181 0.755861L15.1181 0.75586L14.9956 0.913911ZM15.1071 1.14122H15.3071L15.307 1.13814L15.1071 1.14122ZM15.1071 2.58352H14.9067L14.9074 2.59594L15.1071 2.58352ZM15.0023 2.82035L15.1248 2.9784L15.1248 2.9784L15.0023 2.82035ZM14.7557 2.85595L14.8297 2.67015L14.7941 2.65595H14.7557V2.85595ZM11.8686 2.85595V2.65595H11.7144L11.6752 2.80513L11.8686 2.85595ZM8.00348 10.1996L8.14825 10.0616L8.13958 10.0525L8.12985 10.0445L8.00348 10.1996ZM1.6336 5.0073L1.45786 4.91182L1.37869 5.05754L1.50723 5.16232L1.6336 5.0073ZM8.07986 10.2797L7.93509 10.4177L7.96378 10.4478L8.00209 10.4639L8.07986 10.2797ZM8.88946 10.2797L8.96723 10.4639L8.97404 10.4611L8.98061 10.4577L8.88946 10.2797ZM9.69906 9.23803L9.50577 9.18651L9.5048 9.19049L9.69906 9.23803ZM11.5016 2.47527L11.6948 2.52678L11.6972 2.51787L11.6987 2.50878L11.5016 2.47527ZM11.746 2.25091V2.05071L11.7369 2.05112L11.746 2.25091ZM14.4956 2.25091V2.45091H14.6956V2.25091H14.4956ZM14.4956 1.38554H14.6956V1.18554H14.4956V1.38554ZM11.0128 1.38554V1.18554H10.9191L10.8592 1.25744L11.0128 1.38554ZM9.40883 3.3086L9.25509 3.18037L9.24976 3.18736L9.40883 3.3086ZM9.21025 3.40475L9.21686 3.20475H9.21025V3.40475ZM2.5043 3.40475V3.20475H2.38535L2.32856 3.30927L2.5043 3.40475ZM9.0792 10.9869C9.69762 10.7075 10.1581 10.1509 10.3359 9.47746L9.94914 9.37535C9.80074 9.93743 9.41851 10.3946 8.91451 10.6223L9.0792 10.9869ZM8.574 11.0847C8.74119 11.0806 8.90665 11.0496 9.06453 10.9928L8.92917 10.6164C8.81143 10.6587 8.68837 10.6818 8.56427 10.6848L8.574 11.0847ZM7.72743 10.8694C7.98743 11.0063 8.27412 11.0801 8.56598 11.0847L8.57229 10.6847C8.3439 10.6811 8.11884 10.6234 7.91384 10.5155L7.72743 10.8694ZM1.03569 5.52821L7.69581 10.8487L7.94547 10.5362L1.28535 5.21569L1.03569 5.52821ZM0.839173 5.2904C0.883779 5.39461 0.959122 5.4833 1.05626 5.54263L1.26477 5.20127C1.2406 5.18651 1.2198 5.16312 1.2069 5.13299L0.839173 5.2904ZM0.839349 4.90823C0.786884 5.03004 0.786884 5.169 0.839349 5.29081L1.20672 5.13258C1.19776 5.11177 1.19776 5.08727 1.20672 5.06645L0.839349 4.90823ZM1.94856 2.93417L0.848725 4.88928L1.19735 5.0854L2.29718 3.13029L1.94856 2.93417ZM2.35201 2.688C2.17724 2.688 2.02218 2.78897 1.94459 2.94159L2.30116 3.12286C2.31383 3.09793 2.33496 3.088 2.35201 3.088V2.688ZM9.0885 2.688H2.35201V3.088H9.0885V2.688ZM10.5388 0.836838L8.93491 2.7599L9.24209 3.0161L10.846 1.09304L10.5388 0.836838ZM10.8976 0.668896C10.7537 0.664141 10.6193 0.730996 10.5334 0.843704L10.8515 1.08618C10.8617 1.07275 10.8745 1.06835 10.8844 1.06868L10.8976 0.668896ZM14.7557 0.668787H10.891V1.06879H14.7557V0.668787ZM15.1181 0.75586C14.9988 0.663355 14.843 0.633294 14.6976 0.677408L14.8138 1.06017C14.833 1.05433 14.8545 1.05764 14.873 1.07196L15.1181 0.75586ZM15.307 1.13814C15.3047 0.989735 15.2367 0.847812 15.1181 0.755861L14.873 1.07196C14.8922 1.08684 14.9066 1.113 14.9071 1.1443L15.307 1.13814ZM15.3071 2.58352V1.14122H14.9071V2.58352H15.3071ZM15.1248 2.9784C15.2501 2.88126 15.3164 2.72724 15.3067 2.57109L14.9074 2.59594C14.9092 2.6248 14.8966 2.64924 14.8797 2.6623L15.1248 2.9784ZM14.6817 3.04174C14.831 3.10125 14.9986 3.07632 15.1248 2.9784L14.8797 2.6623C14.8639 2.67459 14.8456 2.67648 14.8297 2.67015L14.6817 3.04174ZM11.8686 3.05595H14.7557V2.65595H11.8686V3.05595ZM10.3359 9.47722L12.0621 2.90677L11.6752 2.80513L9.94908 9.37558L10.3359 9.47722ZM8.12985 10.0445L1.75996 4.85228L1.50723 5.16232L7.87712 10.3546L8.12985 10.0445ZM8.22463 10.1417L8.14825 10.0616L7.85872 10.3376L7.93509 10.4177L8.22463 10.1417ZM8.81169 10.0954C8.60166 10.1841 8.36766 10.1841 8.15763 10.0954L8.00209 10.4639C8.31156 10.5946 8.65776 10.5946 8.96723 10.4639L8.81169 10.0954ZM9.5048 9.19049C9.4067 9.59132 9.14686 9.92322 8.79832 10.1017L8.98061 10.4577C9.43672 10.2242 9.76877 9.79455 9.89333 9.28558L9.5048 9.19049ZM11.3083 2.42376L9.50581 9.18652L9.89232 9.28954L11.6948 2.52678L11.3083 2.42376ZM11.7369 2.05112C11.5151 2.06121 11.3404 2.22978 11.3044 2.44176L11.6987 2.50878C11.7054 2.46957 11.7339 2.45167 11.7551 2.45071L11.7369 2.05112ZM14.4956 2.05091H11.746V2.45091H14.4956V2.05091ZM14.2956 1.38554V2.25091H14.6956V1.38554H14.2956ZM11.0128 1.58554H14.4956V1.18554H11.0128V1.58554ZM9.56242 3.4367L11.1663 1.51364L10.8592 1.25744L9.25524 3.1805L9.56242 3.4367ZM9.20364 3.60464C9.34756 3.6094 9.48199 3.54254 9.5679 3.42983L9.24976 3.18736C9.23953 3.20079 9.22681 3.20519 9.21685 3.20486L9.20364 3.60464ZM2.5043 3.60475H9.21025V3.20475H2.5043V3.60475ZM1.80933 5.10278L2.68004 3.50023L2.32856 3.30927L1.45786 4.91182L1.80933 5.10278Z" fill="white"/>
<path fill-rule="evenodd" clip-rule="evenodd" d="M11.3912 12.9245C11.5984 12.4081 12.0831 12.0747 12.6171 12.0811C13.3342 12.0811 13.9155 12.691 13.9155 13.4433C13.9217 14.0036 13.6039 14.512 13.1117 14.7295C12.6194 14.9469 12.0507 14.83 11.673 14.4338C11.2953 14.0376 11.1839 13.4409 11.3912 12.9245ZM11.8862 13.7706C12.0116 14.0754 12.3003 14.2704 12.6167 14.2639V14.328C12.8332 14.3291 13.04 14.2338 13.1857 14.0657C13.3313 13.8976 13.4021 13.6726 13.3805 13.4466C13.3804 13.1146 13.1889 12.8156 12.8959 12.6901C12.6029 12.5646 12.2667 12.6375 12.0451 12.8746C11.8236 13.1117 11.7608 13.4658 11.8862 13.7706Z" fill="white"/>
<path d="M12.6171 12.0811L12.6147 12.2811H12.6171V12.0811ZM11.3912 12.9245L11.5768 12.999H11.5768L11.3912 12.9245ZM13.9155 13.4433H13.7155L13.7156 13.4455L13.9155 13.4433ZM13.1117 14.7295L13.0309 14.5465L13.1117 14.7295ZM11.673 14.4338L11.8178 14.2958L11.673 14.4338ZM12.6167 14.2639H12.8167V14.0597L12.6126 14.0639L12.6167 14.2639ZM11.8862 13.7706L11.7012 13.8467V13.8467L11.8862 13.7706ZM12.6167 14.328H12.4167V14.5269L12.6157 14.528L12.6167 14.328ZM13.3805 13.4466L13.1805 13.4466L13.1805 13.4562L13.1814 13.4657L13.3805 13.4466ZM12.0451 12.8746L11.899 12.738V12.738L12.0451 12.8746ZM12.6196 11.8812C11.9984 11.8736 11.4419 12.2612 11.2056 12.85L11.5768 12.999C11.755 12.5549 12.1677 12.2757 12.6147 12.2811L12.6196 11.8812ZM14.1155 13.4433C14.1155 12.5897 13.4536 11.8811 12.6171 11.8811V12.2811C13.2148 12.2811 13.7155 12.7923 13.7155 13.4433H14.1155ZM13.1925 14.9124C13.7618 14.661 14.1225 14.0771 14.1155 13.4411L13.7156 13.4455C13.7209 13.9301 13.4461 14.3631 13.0309 14.5465L13.1925 14.9124ZM11.5282 14.5718C11.9628 15.0276 12.6213 15.1647 13.1925 14.9124L13.0309 14.5465C12.6175 14.7291 12.1386 14.6324 11.8178 14.2958L11.5282 14.5718ZM11.2056 12.85C10.9698 13.4376 11.0954 14.1176 11.5282 14.5718L11.8178 14.2958C11.4953 13.9575 11.3981 13.4442 11.5768 12.999L11.2056 12.85ZM12.6126 14.0639C12.3832 14.0686 12.1668 13.9272 12.0711 13.6945L11.7012 13.8467C11.8563 14.2237 12.2174 14.4721 12.6208 14.4638L12.6126 14.0639ZM12.8167 14.328V14.2639H12.4167V14.328H12.8167ZM13.0345 13.9347C12.9259 14.0601 12.7741 14.1288 12.6178 14.128L12.6157 14.528C12.8923 14.5294 13.1541 14.4075 13.3368 14.1967L13.0345 13.9347ZM13.1814 13.4657C13.198 13.6385 13.1435 13.809 13.0345 13.9347L13.3368 14.1967C13.5192 13.9863 13.6063 13.7067 13.5796 13.4275L13.1814 13.4657ZM12.8172 12.8739C13.0327 12.9663 13.1804 13.1903 13.1805 13.4466L13.5805 13.4465C13.5804 13.0389 13.3451 12.6649 12.9747 12.5062L12.8172 12.8739ZM12.1913 13.0111C12.3567 12.8341 12.6035 12.7824 12.8172 12.8739L12.9747 12.5062C12.6024 12.3468 12.1767 12.4409 11.899 12.738L12.1913 13.0111ZM12.0711 13.6945C11.9749 13.4606 12.0242 13.1899 12.1913 13.0111L11.899 12.738C11.6229 13.0334 11.5466 13.471 11.7012 13.8467L12.0711 13.6945Z" fill="white"/>
<path d="M8.7062 4.7758C8.7062 4.61648 8.5831 4.48734 8.43124 4.48734H4.74984C4.66709 4.46752 4.58024 4.48891 4.51454 4.54531C4.44884 4.6017 4.41165 4.68677 4.41378 4.7758C4.4219 4.92882 4.54266 5.04847 4.68874 5.04823H8.43124C8.57733 5.04847 8.69808 4.92882 8.7062 4.7758Z" fill="white" stroke="white" stroke-width="0.4"/>
<path d="M8.7061 6.63994C8.7061 6.47969 8.7061 6.36751 8.55334 6.36751H6.47588C6.47588 6.36751 6.32312 6.47969 6.32312 6.63994C6.32312 6.8002 6.32312 6.9284 6.47588 6.9284H8.55334C8.55334 6.9284 8.7061 6.8002 8.7061 6.63994Z" fill="white" stroke="white" stroke-width="0.4"/>
<path fill-rule="evenodd" clip-rule="evenodd" d="M1.02261 13.508C1.00585 11.6469 2.42587 10.1215 4.19977 10.0951C5.06251 10.0822 5.89415 10.4328 6.50855 11.0683C7.12295 11.7038 7.46881 12.5713 7.46873 13.4764C7.46855 15.3376 6.03472 16.8488 4.26065 16.8574C2.48659 16.8661 1.03936 15.3691 1.02261 13.508ZM1.51115 13.4746C1.51115 15.0323 2.71483 16.2951 4.19964 16.2951C4.91268 16.2951 5.5965 15.9979 6.10069 15.469C6.60488 14.94 6.88813 14.2226 6.88813 13.4746C6.88813 11.9169 5.68446 10.6541 4.19964 10.6541C2.71483 10.6541 1.51115 11.9169 1.51115 13.4746Z" fill="white"/>
<path d="M4.19977 10.0951L4.20275 10.295L4.19977 10.0951ZM1.02261 13.508L1.2226 13.5062L1.02261 13.508ZM6.50855 11.0683L6.65234 10.9293L6.50855 11.0683ZM7.46873 13.4764L7.26873 13.4764L7.46873 13.4764ZM6.10069 15.469L5.95592 15.331L6.10069 15.469ZM4.19679 9.89509C2.30406 9.92333 0.804951 11.5478 0.822616 13.5098L1.2226 13.5062C1.20675 11.7461 2.54768 10.3197 4.20275 10.295L4.19679 9.89509ZM6.65234 10.9293C6.0006 10.2551 5.11628 9.88137 4.19679 9.89509L4.20275 10.295C5.00873 10.283 5.7877 10.6104 6.36476 11.2073L6.65234 10.9293ZM7.66873 13.4765C7.66882 12.5208 7.30376 11.6031 6.65234 10.9293L6.36476 11.2073C6.94215 11.8045 7.26881 12.6217 7.26873 13.4764L7.66873 13.4765ZM4.26163 17.0574C6.15462 17.0482 7.66854 15.4386 7.66873 13.4765L7.26873 13.4764C7.26856 15.2366 5.91481 16.6493 4.25967 16.6575L4.26163 17.0574ZM0.822616 13.5098C0.840282 15.472 2.36857 17.0667 4.26163 17.0574L4.25967 16.6575C2.60462 16.6656 1.23845 15.2663 1.2226 13.5062L0.822616 13.5098ZM4.19964 16.0951C2.83421 16.0951 1.71115 14.931 1.71115 13.4746H1.31115C1.31115 15.1336 2.59545 16.4951 4.19964 16.4951V16.0951ZM5.95592 15.331C5.48842 15.8214 4.85645 16.0951 4.19964 16.0951V16.4951C4.9689 16.4951 5.70459 16.1744 6.24546 15.607L5.95592 15.331ZM6.68813 13.4746C6.68813 14.1726 6.42374 14.8402 5.95592 15.331L6.24546 15.607C6.78603 15.0399 7.08813 14.2727 7.08813 13.4746H6.68813ZM4.19964 10.8541C5.56507 10.8541 6.68813 12.0182 6.68813 13.4746H7.08813C7.08813 11.8156 5.80384 10.4541 4.19964 10.4541V10.8541ZM1.71115 13.4746C1.71115 12.0182 2.83421 10.8541 4.19964 10.8541V10.4541C2.59545 10.4541 1.31115 11.8156 1.31115 13.4746H1.71115Z" fill="white"/>
<path fill-rule="evenodd" clip-rule="evenodd" d="M2.9021 13.4432C2.9021 12.6909 3.48342 12.0811 4.20052 12.0811C4.54488 12.0811 4.87514 12.2246 5.11864 12.48C5.36214 12.7355 5.49894 13.082 5.49894 13.4432C5.49894 14.1955 4.91761 14.8054 4.20052 14.8054C3.48342 14.8054 2.9021 14.1955 2.9021 13.4432ZM3.43625 13.4421C3.43625 13.8846 3.77821 14.2433 4.20003 14.2433V14.2754C4.408 14.2756 4.60705 14.1867 4.75119 14.0295C4.89534 13.8722 4.97212 13.6601 4.9638 13.4421C4.9638 12.9995 4.62185 12.6408 4.20003 12.6408C3.77821 12.6408 3.43625 12.9995 3.43625 13.4421Z" fill="white"/>
<path d="M5.11864 12.48L5.26341 12.342L5.26341 12.342L5.11864 12.48ZM4.20003 14.2433H4.40003V14.0433H4.20003V14.2433ZM4.20003 14.2754H4.00003V14.4752L4.19986 14.4754L4.20003 14.2754ZM4.75119 14.0295L4.89863 14.1646V14.1646L4.75119 14.0295ZM4.9638 13.4421H4.76366L4.76395 13.4497L4.9638 13.4421ZM4.20052 11.8811C3.36404 11.8811 2.7021 12.5896 2.7021 13.4432H3.1021C3.1021 12.7922 3.6028 12.2811 4.20052 12.2811V11.8811ZM5.26341 12.342C4.98322 12.0481 4.6011 11.8811 4.20052 11.8811V12.2811C4.48866 12.2811 4.76706 12.401 4.97387 12.618L5.26341 12.342ZM5.69894 13.4432C5.69894 13.0319 5.54328 12.6356 5.26341 12.342L4.97387 12.618C5.18099 12.8353 5.29894 13.132 5.29894 13.4432H5.69894ZM4.20052 15.0054C5.037 15.0054 5.69894 14.2968 5.69894 13.4432H5.29894C5.29894 14.0942 4.79823 14.6054 4.20052 14.6054V15.0054ZM2.7021 13.4432C2.7021 14.2968 3.36404 15.0054 4.20052 15.0054V14.6054C3.6028 14.6054 3.1021 14.0942 3.1021 13.4432H2.7021ZM4.20003 14.0433C3.89759 14.0433 3.63625 13.7833 3.63625 13.4421H3.23625C3.23625 13.9859 3.65883 14.4433 4.20003 14.4433V14.0433ZM4.40003 14.2754V14.2433H4.00003V14.2754H4.40003ZM4.60375 13.8943C4.49642 14.0115 4.35042 14.0755 4.2002 14.0754L4.19986 14.4754C4.46558 14.4756 4.71768 14.362 4.89863 14.1646L4.60375 13.8943ZM4.76395 13.4497C4.77031 13.6164 4.71142 13.7769 4.60375 13.8943L4.89863 14.1646C5.07926 13.9675 5.17393 13.7037 5.16366 13.4344L4.76395 13.4497ZM4.20003 12.8408C4.50247 12.8408 4.7638 13.1008 4.7638 13.4421H5.1638C5.1638 12.8982 4.74123 12.4408 4.20003 12.4408V12.8408ZM3.63625 13.4421C3.63625 13.1008 3.89759 12.8408 4.20003 12.8408V12.4408C3.65883 12.4408 3.23625 12.8982 3.23625 13.4421H3.63625Z" fill="white"/>
</svg>
