<svg width="155" height="40" viewBox="0 0 155 40" fill="none" xmlns="http://www.w3.org/2000/svg">
<g clip-path="url(#clip0_196_2029)">
<path d="M72.4464 22.4266C71.683 21.8394 70.8418 21.3604 69.9467 21.0033C68.9937 20.6709 67.9883 20.5127 66.979 20.5365C65.9782 20.4732 64.983 20.7283 64.1368 21.2652C63.8376 21.4804 63.5951 21.7648 63.4301 22.094C63.2651 22.4232 63.1825 22.7873 63.1895 23.1553C63.186 23.5465 63.2637 23.9341 63.4178 24.2939C63.6144 24.6615 63.8867 24.9835 64.2167 25.2389C64.6827 25.6017 65.1881 25.9111 65.7234 26.1612C66.3512 26.4686 67.116 26.8216 68.0063 27.2315C68.8966 27.6414 69.9924 28.1424 70.7685 28.5067C71.5112 28.8659 72.2054 29.3174 72.8345 29.8503C73.4152 30.3331 73.8795 30.9402 74.1928 31.6265C74.4987 32.3858 74.6463 33.1994 74.6265 34.0176C74.653 34.9586 74.4285 35.8899 73.9759 36.716C73.5581 37.4522 72.981 38.0862 72.2866 38.572C71.555 39.0706 70.7391 39.4332 69.8782 39.6422C68.9715 39.8706 68.0397 39.9854 67.1046 39.9838C65.2499 39.9824 63.4197 39.562 61.7513 38.7541C61.2134 38.4823 60.6947 38.1742 60.1989 37.8319V34.6096C61.3758 35.4904 62.656 36.2246 64.0113 36.7957C65.0079 37.1999 66.0744 37.4049 67.1502 37.3992C68.3307 37.4927 69.5085 37.1879 70.4946 36.5339C70.8641 36.2567 71.1609 35.8945 71.3597 35.4782C71.5585 35.0618 71.6533 34.6036 71.636 34.1428C71.6376 33.7482 71.5477 33.3585 71.3735 33.0042C71.1495 32.606 70.8512 32.2543 70.4946 31.9681C69.9965 31.5822 69.4612 31.2465 68.8966 30.9661C68.246 30.6359 67.4356 30.2602 66.4539 29.8275C65.4723 29.3948 64.4336 28.928 63.6346 28.5181C62.9067 28.1699 62.2337 27.7172 61.6371 27.1746C61.1374 26.7256 60.747 26.1687 60.4957 25.5464C60.2374 24.847 60.1134 24.1054 60.1304 23.3602C60.1239 22.5961 60.3041 21.8418 60.6555 21.1627C61.0068 20.5007 61.4928 19.919 62.0823 19.4548C62.7133 18.9349 63.4433 18.5476 64.2282 18.3162C65.1748 18.0488 66.155 17.9185 67.1388 17.9291C68.5043 17.9049 69.8636 18.1167 71.1566 18.5553C71.5834 18.7042 71.996 18.8909 72.3893 19.1133L72.4464 22.4266Z" fill="white"/>
<path fill-rule="evenodd" clip-rule="evenodd" d="M145.326 5.51893C146.719 5.63279 147.415 4.49418 147.05 3.05955C146.859 2.33596 146.48 1.67559 145.951 1.14561C145.422 0.615621 144.761 0.23493 144.036 0.0422542C142.667 -0.219624 141.685 0.759573 142.028 2.31946C142.211 3.11255 142.62 3.83609 143.205 4.40351C143.79 4.97092 144.526 5.35818 145.326 5.51893Z" fill="white"/>
<path fill-rule="evenodd" clip-rule="evenodd" d="M150.76 14.753C149.892 13.7396 148.169 11.4283 149.983 11.2233C151.125 11.0867 151.125 11.2233 151.661 11.5535C152.403 12.0773 152.997 12.6921 153.727 12.6921C154.755 12.6124 155.257 11.5535 154.869 10.1758C154.737 9.55742 154.427 8.99093 153.977 8.54593C153.527 8.10092 152.956 7.79678 152.335 7.67086C151.604 7.67086 151.296 8.206 150.942 8.80946C150.588 9.41292 150.075 9.20797 149.162 9.13966C148.726 9.09006 148.321 8.88842 148.02 8.57036C147.737 8.21168 147.384 7.91454 146.981 7.6972C146.579 7.47985 146.136 7.3469 145.68 7.30651C144.687 7.30651 144.196 7.92135 143.637 8.66144C143.078 9.40153 142.359 9.13965 141.092 9.05995C139.46 8.94609 139.46 7.57977 137.177 7.11294C136.675 6.98868 136.15 6.98519 135.647 7.10277C135.143 7.22034 134.675 7.45562 134.28 7.7892C133.885 8.12278 133.576 8.54513 133.377 9.02143C133.178 9.49774 133.095 10.0144 133.136 10.5288C133.342 11.618 133.95 12.5906 134.839 13.2546C135.729 13.9186 136.836 14.2257 137.941 14.1154C140.35 13.8991 140.03 11.8382 142.016 11.5763C144.505 11.303 144.858 12.8971 143.957 15.2654C143.181 17.2807 141.377 16.404 140.532 18.8406C139.745 21.1178 140.532 23.839 142.416 24.6816C144.299 25.5242 146.274 23.6682 146.514 21.4252C146.765 18.9772 145.566 18.6242 145.943 16.8708C146.228 15.5386 146.194 14.7416 147.084 14.3545C147.975 13.9674 148.819 15.0035 149.458 15.903C150.6 17.5426 149.778 18.8861 151.136 20.6054C152.278 22.04 153.819 22.245 154.561 20.947C154.844 20.1534 154.901 19.2969 154.726 18.4727C154.551 17.6486 154.15 16.8891 153.568 16.2787C152.129 14.9466 151.741 15.9144 150.76 14.753Z" fill="#009FE8"/>
<path d="M29.1178 20.1151C27.5421 18.7354 25.5068 17.9924 23.4106 18.0315C21.5376 17.9857 19.6886 18.4587 18.0688 19.3978C17.1107 19.9666 16.295 20.7453 15.6832 21.675C15.0748 20.7777 14.2999 20.0047 13.4003 19.3978C12.1295 18.5492 10.6493 18.0654 9.1214 17.9991C7.59354 17.9328 6.07681 18.2867 4.73691 19.0221C4.13947 19.3193 3.57024 19.6699 3.03619 20.0696V18.4983H0V39.5055H3.08185V25.774C3.09003 25.1185 3.24252 24.4727 3.52851 23.8825C3.81451 23.2922 4.22704 22.7718 4.73691 22.3582C5.81705 21.3549 7.24481 20.8081 8.72049 20.8325C10.146 20.8062 11.5242 21.3422 12.5557 22.324C13.0448 22.7498 13.4372 23.2747 13.7069 23.8637C13.9765 24.4527 14.1172 25.0923 14.1194 25.7398V39.5055H17.2698V25.774C17.2767 25.1124 17.4344 24.461 17.7311 23.8692C18.0277 23.2774 18.4554 22.7607 18.9819 22.3582C20.0824 21.3569 21.5217 20.8079 23.0111 20.8211C24.4384 20.7869 25.8226 21.3098 26.8691 22.2785C27.3774 22.7205 27.7813 23.2693 28.0517 23.8855C28.322 24.5017 28.4522 25.17 28.4329 25.8423V39.5055H31.5718V25.8423C31.6181 24.7654 31.4217 23.6918 30.997 22.7006C30.5723 21.7095 29.9301 20.826 29.1178 20.1151Z" fill="white"/>
<path d="M53.1563 18.4995V30.6028C53.1418 31.484 52.9292 32.3507 52.5341 33.139C52.139 33.9272 51.5714 34.6169 50.8734 35.1572C49.4445 36.4496 47.5859 37.1676 45.6571 37.1725C44.7191 37.1966 43.7857 37.0338 42.9116 36.6937C42.0375 36.3535 41.2402 35.8427 40.5664 35.1914C39.9148 34.6236 39.3925 33.9236 39.0342 33.1381C38.6759 32.3527 38.49 31.4999 38.489 30.637V18.4995H35.2816V30.6028C35.271 31.865 35.5337 33.1145 36.0518 34.2661C36.5699 35.4176 37.3311 36.444 38.2835 37.275C40.2959 39.0983 42.9399 40.0699 45.6571 39.9849C47.0401 40.0614 48.4241 39.8543 49.7237 39.3765C51.0233 38.8987 52.211 38.1602 53.2133 37.2067V39.4839H56.3523V18.4995H53.1563Z" fill="white"/>
<path d="M106.906 20.1151C105.328 18.7402 103.294 17.9978 101.199 18.0315C99.3336 17.9899 97.493 18.4627 95.8798 19.3978C94.9252 19.967 94.1132 20.7458 93.5056 21.675C92.8932 20.781 92.119 20.0088 91.2228 19.3978C89.9519 18.5492 88.4717 18.0654 86.9439 17.9991C85.416 17.9328 83.8993 18.2867 82.5594 19.0221C81.9619 19.3193 81.3927 19.6699 80.8586 20.0696V18.4983H77.7197V39.5055H80.8586V25.774C80.8668 25.1185 81.0193 24.4727 81.3053 23.8825C81.5913 23.2922 82.0038 22.7718 82.5137 22.3582C83.5939 21.3549 85.0216 20.8081 86.4973 20.8325C87.2089 20.8149 87.917 20.9377 88.581 21.1936C89.245 21.4496 89.8518 21.8337 90.3667 22.324C90.8558 22.7498 91.2483 23.2747 91.5179 23.8637C91.7876 24.4527 91.9282 25.0923 91.9305 25.7398V39.5055H95.0808V25.774C95.0877 25.1124 95.2455 24.461 95.5421 23.8692C95.8387 23.2774 96.2665 22.7607 96.7929 22.3582C97.8969 21.3552 99.3404 20.8061 100.834 20.8211C102.258 20.7863 103.638 21.3095 104.68 22.2785C105.188 22.7205 105.592 23.2693 105.863 23.8855C106.133 24.5017 106.263 25.17 106.244 25.8423V39.5055H109.394V25.8423C109.434 24.763 109.231 23.6885 108.8 22.6976C108.37 21.7066 107.723 20.8243 106.906 20.1151Z" fill="white"/>
<path d="M133.547 18.4989V21.5959C132.749 20.7805 131.824 20.0998 130.807 19.5806C128.879 18.5667 126.732 18.0353 124.552 18.0321C121.384 17.971 118.311 19.1149 115.957 21.2316C114.82 22.1849 113.905 23.375 113.277 24.7185C112.65 26.0619 112.325 27.5261 112.325 29.0082C112.325 30.4904 112.65 31.9545 113.277 33.298C113.905 34.6414 114.82 35.8316 115.957 36.7849C118.318 38.8973 121.393 40.0404 124.564 39.9843C126.706 39.9928 128.817 39.4685 130.705 38.4586C131.765 37.9078 132.729 37.1887 133.558 36.3294V39.5061H136.709V18.4989H133.547ZM133.65 29.0196C133.649 30.1012 133.414 31.17 132.961 32.1526C132.508 33.1352 131.847 34.0085 131.024 34.7126C129.297 36.33 127.001 37.2051 124.632 37.1492C122.235 37.2005 119.911 36.3231 118.149 34.7012C117.309 34.0081 116.633 33.1384 116.169 32.1542C115.705 31.17 115.466 30.0957 115.467 29.0082C115.472 27.9206 115.715 26.8473 116.181 25.8638C116.646 24.8803 117.322 24.0103 118.16 23.3152C119.917 21.7214 122.206 20.8383 124.581 20.8383C126.955 20.8383 129.245 21.7214 131.001 23.3152C131.834 24.0163 132.504 24.8895 132.966 25.8745C133.427 26.8594 133.668 27.9325 133.672 29.0196H133.65Z" fill="white"/>
</g>
<defs>
<clipPath id="clip0_196_2029">
<rect width="155" height="40" fill="white"/>
</clipPath>
</defs>
</svg>
