<svg width="42" height="42" viewBox="0 0 42 42" fill="none" xmlns="http://www.w3.org/2000/svg">
<path d="M41.125 21C41.125 32.1147 32.1147 41.125 21 41.125C9.88525 41.125 0.875 32.1147 0.875 21C0.875 9.88525 9.88525 0.875 21 0.875C32.1147 0.875 41.125 9.88525 41.125 21ZM22.0163 30.6413C22.2858 30.3717 22.4372 30.0062 22.4372 29.625C22.4372 29.2438 22.2858 28.8783 22.0163 28.6087L15.8451 22.4375H29.625C30.0062 22.4375 30.3719 22.2861 30.6415 22.0165C30.9111 21.7469 31.0625 21.3812 31.0625 21C31.0625 20.6188 30.9111 20.2531 30.6415 19.9835C30.3719 19.714 30.0062 19.5625 29.625 19.5625H15.8451L22.0163 13.3913C22.2782 13.1202 22.4231 12.7571 22.4198 12.3802C22.4165 12.0033 22.2653 11.6427 21.9988 11.3762C21.7323 11.1097 21.3717 10.9585 20.9948 10.9552C20.6179 10.9519 20.2548 11.0968 19.9837 11.3587L11.3587 19.9837C11.0892 20.2533 10.9378 20.6188 10.9378 21C10.9378 21.3812 11.0892 21.7467 11.3587 22.0163L19.9837 30.6413C20.2533 30.9108 20.6188 31.0622 21 31.0622C21.3812 31.0622 21.7467 30.9108 22.0163 30.6413Z" fill="#036DB7"/>
</svg>
