<svg width="16" height="17" viewBox="0 0 16 17" fill="none" xmlns="http://www.w3.org/2000/svg">
<path d="M15.5015 0.857422H9.47792C9.19556 0.857422 9.00732 1.04566 9.00732 1.32801V7.35159C9.00732 7.63395 9.19556 7.82218 9.47792 7.82218H15.5015C15.7838 7.82218 15.9721 7.63395 15.9721 7.35159V1.32801C15.9721 1.04566 15.7838 0.857422 15.5015 0.857422ZM15.0309 6.881H9.94851V1.79861H15.0309V6.881Z" fill="white"/>
<path d="M6.46585 0.857422H0.442272C0.159917 0.857422 -0.0283203 1.04566 -0.0283203 1.32801V7.35159C-0.0283203 7.63395 0.159917 7.82218 0.442272 7.82218H6.46585C6.74821 7.82218 6.93644 7.63395 6.93644 7.35159V1.32801C6.93644 1.04566 6.74821 0.857422 6.46585 0.857422ZM5.99526 6.881H0.912864V1.79861H5.99526V6.881Z" fill="white"/>
<path d="M6.46585 9.89258H0.442272C0.159917 9.89258 -0.0283203 10.0808 -0.0283203 10.3632V16.3867C-0.0283203 16.6691 0.159917 16.8573 0.442272 16.8573H6.46585C6.74821 16.8573 6.93644 16.6691 6.93644 16.3867V10.3632C6.93644 10.0808 6.74821 9.89258 6.46585 9.89258ZM5.99526 15.9162H0.912864V10.8338H5.99526V15.9162Z" fill="white"/>
<path d="M15.5015 9.89258H9.47792C9.19556 9.89258 9.00732 10.0808 9.00732 10.3632V16.3867C9.00732 16.6691 9.19556 16.8573 9.47792 16.8573H15.5015C15.7838 16.8573 15.9721 16.6691 15.9721 16.3867V10.3632C15.9721 10.0808 15.7838 9.89258 15.5015 9.89258ZM15.0309 15.9162H9.94851V10.8338H15.0309V15.9162Z" fill="white"/>
</svg>
